<?xml version="1.0" encoding="UTF-8" standalone="no"?>
<svg width="75px" height="66px" viewBox="0 0 75 66" version="1.1" xmlns="http://www.w3.org/2000/svg" xmlns:xlink="http://www.w3.org/1999/xlink">
    <!-- Generator: Sketch 41.2 (35397) - http://www.bohemiancoding.com/sketch -->
    <title>Shape</title>
    <desc>Created with Sketch.</desc>
    <defs></defs>
    <g id="Page-1" stroke="none" stroke-width="1" fill="none" fill-rule="evenodd">
        <g id="logo" fill="#FFFFFF">
            <path d="M68.6,34.6 C61.9,34.6 58.7,37.7 58.7,44.3 L58.7,57.3 L65.7,57.3 L65.7,44.3 C65.7,41.5 66.9,40.7 69.1,40.7 L75,40.7 L75,34.6 L68.6,34.6 L68.6,34.6 Z M45.8,34.1 C38.1,34.1 34.5,39.1 34.5,45.9 C34.5,53.1 38.3,57.7 46.3,57.7 C49.8,57.7 53.3,56.4 55.4,54.1 L51.3,50.1 C50.2,51.1 48.6,51.9 46.7,51.9 C44.1,51.9 42.5,51.1 41.9,48.7 L56.8,48.7 C56.9,48 56.9,46.2 56.9,45.8 C56.9,39.3 53.8,34.1 45.8,34.1 Z M41.7,43.8 C42,41.2 43.2,39.9 45.7,39.9 C48.3,39.9 49.4,41.3 49.7,43.8 L41.7,43.8 Z M21.2,34.6 L11.5,34.6 L11.5,65.1 L18.5,65.1 L18.5,57.3 L21.2,57.3 C28.8,57.3 33,53.6 33,45.9 C33,38.4 28.8,34.6 21.2,34.6 Z M20.8,51.2 L18.5,51.2 L18.5,40.7 L20.8,40.7 C24,40.7 25.8,42 25.8,45.9 C25.8,50 24,51.2 20.8,51.2 Z M52.9,0.5 L45.9,0.5 L45.9,7 L52.9,7 L52.9,0.5 Z M20.8,9.7 L13.8,9.7 L13.8,26.4 L10.7,26.4 C8.5,26.4 7.3,25.6 7.3,22.8 L7.3,9.7 L0.3,9.7 L0.3,22.8 C0.3,29.4 3.4,32.4 10.2,32.4 L20.8,32.4 L20.8,9.7 Z M52.9,9.7 L45.9,9.7 L45.9,32.4 L52.9,32.4 L52.9,9.7 Z M36.6,19.4 L36.6,32.4 L43.6,32.4 L43.6,19.4 C43.6,12.8 40.5,9.7 33.7,9.7 L23.1,9.7 L23.1,32.4 L30.1,32.4 L30.1,15.8 L33.2,15.8 C35.4,15.8 36.6,16.5 36.6,19.4 Z" id="Shape"></path>
        </g>
    </g>
</svg>